<svg width="28" height="28" viewBox="0 0 28 28" fill="none" xmlns="http://www.w3.org/2000/svg">
<mask id="mask0_6_32" style="mask-type:alpha" maskUnits="userSpaceOnUse" x="0" y="0" width="28" height="28">
<rect width="27.9384" height="27.9384" fill="#D9D9D9"/>
</mask>
<g mask="url(#mask0_6_32)">
<path d="M3.49239 24.4461C2.85213 24.4461 2.30403 24.2181 1.84809 23.7622C1.39215 23.3063 1.16418 22.7582 1.16418 22.1179V8.14869C1.16418 7.81886 1.27574 7.54239 1.49886 7.31927C1.72198 7.09615 1.99846 6.98459 2.32829 6.98459C2.65811 6.98459 2.93459 7.09615 3.15771 7.31927C3.38083 7.54239 3.49239 7.81886 3.49239 8.14869V22.1179H22.118C22.4478 22.1179 22.7243 22.2295 22.9474 22.4526C23.1705 22.6757 23.2821 22.9522 23.2821 23.282C23.2821 23.6118 23.1705 23.8883 22.9474 24.1114C22.7243 24.3345 22.4478 24.4461 22.118 24.4461H3.49239ZM8.14879 19.7897C7.50854 19.7897 6.96044 19.5617 6.5045 19.1058C6.04856 18.6499 5.82059 18.1018 5.82059 17.4615V4.65639C5.82059 4.01613 6.04856 3.46803 6.5045 3.0121C6.96044 2.55616 7.50854 2.32819 8.14879 2.32819H13.0089C13.3193 2.32819 13.6152 2.38639 13.8965 2.5028C14.1779 2.61921 14.4252 2.78413 14.6387 2.99754L16.2975 4.65639H24.4462C25.0865 4.65639 25.6346 4.88436 26.0905 5.3403C26.5464 5.79624 26.7744 6.34433 26.7744 6.98459V17.4615C26.7744 18.1018 26.5464 18.6499 26.0905 19.1058C25.6346 19.5617 25.0865 19.7897 24.4462 19.7897H8.14879ZM8.14879 17.4615H24.4462V6.98459H15.3371L13.0089 4.65639H8.14879V17.4615Z" fill="#61D7A6"/>
</g>
</svg>
